<svg xmlns="http://www.w3.org/2000/svg" width="80" height="80" viewBox="0 0 80 80" fill="none">
  <defs>
    <radialGradient id="well" cx="0" cy="0" r="1" gradientTransform="translate(34 29) rotate(53) scale(50)">
      <stop stop-color="#25251F"/><stop offset=".58" stop-color="#10110E"/><stop offset="1" stop-color="#040504"/>
    </radialGradient>
    <linearGradient id="rim" x1="11" y1="10" x2="70" y2="72">
      <stop stop-color="#D0A762"/><stop offset=".33" stop-color="#5B4225"/><stop offset=".68" stop-color="#A5793D"/><stop offset="1" stop-color="#2B2014"/>
    </linearGradient>
  </defs>
  <path d="M40 2l7 6 10-1 4 9 9 4-1 10 6 7-6 7 1 10-9 4-4 9-10-1-7 6-7-6-10 1-4-9-9-4 1-10-6-7 6-7-1-10 9-4 4-9 10 1z" fill="#050605" stroke="#020302" stroke-width="2"/>
  <circle cx="40" cy="37" r="29" fill="url(#well)" stroke="url(#rim)" stroke-width="2.5"/>
  <circle cx="40" cy="37" r="23" stroke="#3B382F"/>
  <path d="M19 61h42l-6 11H25z" fill="#090A08" stroke="#60492B"/>
  <path d="M31 67h18" stroke="#C08D48" stroke-opacity=".72"/>
</svg>
